<svg width="40" height="48" viewBox="0 0 40 48" fill="none" xmlns="http://www.w3.org/2000/svg">
<path d="M20.6995 3.91875L2.29994 35.2688C1.02972 37.433 1.90286 40.1369 4.25015 41.3081L12.7504 45.5493C15.0977 46.7205 18.0303 45.9154 19.3005 43.7512L37.7001 12.4012C38.9703 10.2369 38.0971 7.533 35.7499 6.36182L27.2496 2.12061C24.9023 0.949429 21.9697 1.75449 20.6995 3.91875Z" stroke="#1A1A1A" stroke-width="2" stroke-linecap="round" stroke-linejoin="round"/>
<line y1="-0.5" x2="6.38563" y2="-0.5" transform="matrix(0.908141 0.418665 -0.476702 0.879065 19.7168 5.88159)" stroke="#1A1A1A"/>
<line y1="-0.5" x2="10.7464" y2="-0.5" transform="matrix(0.917368 0.398041 -0.454598 0.890697 17.9771 8.55493)" stroke="#1A1A1A"/>
<line y1="-0.5" x2="13.8331" y2="-0.5" transform="matrix(0.922277 0.386529 -0.442173 0.89693 16.2373 11.7633)" stroke="#1A1A1A"/>
<line y1="-0.5" x2="6.38563" y2="-0.5" transform="matrix(0.908141 0.418665 -0.476702 0.879065 13.3378 17.1101)" stroke="#1A1A1A"/>
<line y1="-0.5" x2="10.7464" y2="-0.5" transform="matrix(0.917368 0.398041 -0.454598 0.890697 11.5981 19.7834)" stroke="#1A1A1A"/>
<line y1="-0.5" x2="13.8331" y2="-0.5" transform="matrix(0.922277 0.386529 -0.442173 0.89693 9.8584 22.9915)" stroke="#1A1A1A"/>
<line y1="-0.5" x2="6.38563" y2="-0.5" transform="matrix(0.908141 0.418665 -0.476702 0.879065 6.95886 28.3384)" stroke="#1A1A1A"/>
<line y1="-0.5" x2="10.7464" y2="-0.5" transform="matrix(0.917368 0.398041 -0.454598 0.890697 5.21915 31.012)" stroke="#1A1A1A"/>
<line y1="-0.5" x2="13.8331" y2="-0.5" transform="matrix(0.922277 0.386529 -0.442173 0.89693 3.47943 34.22)" stroke="#1A1A1A"/>
</svg>
