<svg width="29" height="36" viewBox="0 0 29 36" fill="none" xmlns="http://www.w3.org/2000/svg">
<path d="M17.6667 1H4.33333C3.44928 1 2.60143 1.35119 1.97631 1.97631C1.35119 2.60143 1 3.44928 1 4.33333V31C1 31.8841 1.35119 32.7319 1.97631 33.357C2.60143 33.9821 3.44928 34.3333 4.33333 34.3333H24.3333C25.2174 34.3333 26.0652 33.9821 26.6904 33.357C27.3155 32.7319 27.6667 31.8841 27.6667 31V11L17.6667 1Z" stroke="#1A1A1A" stroke-width="2" stroke-linecap="round" stroke-linejoin="round"/>
<path d="M17.6667 1V11H27.6667" stroke="#1A1A1A" stroke-width="2" stroke-linecap="round" stroke-linejoin="round"/>
<path d="M21 19.3333H7.66669" stroke="#1A1A1A" stroke-width="2" stroke-linecap="round" stroke-linejoin="round"/>
<path d="M21 26H7.66669" stroke="#1A1A1A" stroke-width="2" stroke-linecap="round" stroke-linejoin="round"/>
<path d="M11 12.6666H9.33335H7.66669" stroke="#1A1A1A" stroke-width="2" stroke-linecap="round" stroke-linejoin="round"/>
</svg>
