<svg width="39" height="39" viewBox="0 0 39 39" fill="none" xmlns="http://www.w3.org/2000/svg">
<path d="M14.1333 0.799988H3.46667C1.99391 0.799988 0.800003 1.9939 0.800003 3.46665V14.1333C0.800003 15.6061 1.99391 16.8 3.46667 16.8H14.1333C15.6061 16.8 16.8 15.6061 16.8 14.1333V3.46665C16.8 1.9939 15.6061 0.799988 14.1333 0.799988Z" stroke="black" stroke-width="1.6"/>
<path d="M35.4667 0.799988H24.8C23.3272 0.799988 22.1333 1.9939 22.1333 3.46665V14.1333C22.1333 15.6061 23.3272 16.8 24.8 16.8H35.4667C36.9394 16.8 38.1333 15.6061 38.1333 14.1333V3.46665C38.1333 1.9939 36.9394 0.799988 35.4667 0.799988Z" stroke="black" stroke-width="1.6"/>
<path d="M35.4667 22.1333H24.8C23.3272 22.1333 22.1333 23.3272 22.1333 24.8V35.4667C22.1333 36.9394 23.3272 38.1333 24.8 38.1333H35.4667C36.9394 38.1333 38.1333 36.9394 38.1333 35.4667V24.8C38.1333 23.3272 36.9394 22.1333 35.4667 22.1333Z" stroke="black" stroke-width="1.6"/>
<path d="M14.1333 22.1333H3.46667C1.99391 22.1333 0.800003 23.3272 0.800003 24.8V35.4667C0.800003 36.9394 1.99391 38.1333 3.46667 38.1333H14.1333C15.6061 38.1333 16.8 36.9394 16.8 35.4667V24.8C16.8 23.3272 15.6061 22.1333 14.1333 22.1333Z" stroke="black" stroke-width="1.6"/>
</svg>
