<svg width="40" height="40" viewBox="0 0 40 40" fill="none" xmlns="http://www.w3.org/2000/svg">
<g clip-path="url(#clip0_135_65)">
<path d="M20 25C22.7614 25 25 22.7614 25 20C25 17.2386 22.7614 15 20 15C17.2386 15 15 17.2386 15 20C15 22.7614 17.2386 25 20 25Z" stroke="#1A1A1A" stroke-width="2" stroke-linecap="round" stroke-linejoin="round"/>
<path d="M32.3333 25C32.1115 25.5027 32.0453 26.0603 32.1433 26.6009C32.2414 27.1416 32.4991 27.6405 32.8833 28.0333L32.9833 28.1333C33.2933 28.4429 33.5391 28.8105 33.7069 29.2152C33.8746 29.6198 33.961 30.0536 33.961 30.4916C33.961 30.9297 33.8746 31.3634 33.7069 31.7681C33.5391 32.1728 33.2933 32.5404 32.9833 32.85C32.6738 33.1599 32.3061 33.4057 31.9015 33.5735C31.4968 33.7412 31.0631 33.8276 30.625 33.8276C30.187 33.8276 29.7532 33.7412 29.3485 33.5735C28.9439 33.4057 28.5762 33.1599 28.2667 32.85L28.1667 32.75C27.7739 32.3657 27.275 32.108 26.7343 32.0099C26.1937 31.9119 25.636 31.9781 25.1333 32.2C24.6404 32.4112 24.22 32.762 23.9238 33.2092C23.6277 33.6563 23.4688 34.1803 23.4667 34.7166V35C23.4667 35.884 23.1155 36.7319 22.4904 37.357C21.8652 37.9821 21.0174 38.3333 20.1333 38.3333C19.2493 38.3333 18.4014 37.9821 17.7763 37.357C17.1512 36.7319 16.8 35.884 16.8 35V34.85C16.7871 34.2983 16.6085 33.7633 16.2875 33.3145C15.9665 32.8656 15.5179 32.5238 15 32.3333C14.4973 32.1114 13.9397 32.0453 13.399 32.1433C12.8584 32.2413 12.3595 32.4991 11.9667 32.8833L11.8667 32.9833C11.5571 33.2932 11.1895 33.5391 10.7848 33.7068C10.3801 33.8746 9.94639 33.9609 9.50834 33.9609C9.07029 33.9609 8.63653 33.8746 8.23187 33.7068C7.82721 33.5391 7.45958 33.2932 7.15 32.9833C6.84008 32.6737 6.59422 32.3061 6.42647 31.9014C6.25872 31.4968 6.17238 31.063 6.17238 30.625C6.17238 30.1869 6.25872 29.7531 6.42647 29.3485C6.59422 28.9438 6.84008 28.5762 7.15 28.2666L7.25 28.1666C7.63423 27.7738 7.89198 27.2749 7.99001 26.7343C8.08804 26.1936 8.02186 25.636 7.8 25.1333C7.58873 24.6403 7.23793 24.2199 6.79078 23.9238C6.34363 23.6277 5.81965 23.4688 5.28334 23.4666H5C4.11595 23.4666 3.2681 23.1154 2.64298 22.4903C2.01786 21.8652 1.66667 21.0173 1.66667 20.1333C1.66667 19.2492 2.01786 18.4014 2.64298 17.7763C3.2681 17.1511 4.11595 16.8 5 16.8H5.15C5.70166 16.7871 6.23668 16.6085 6.6855 16.2875C7.13433 15.9665 7.4762 15.5179 7.66667 15C7.88853 14.4973 7.95471 13.9396 7.85668 13.399C7.75865 12.8583 7.5009 12.3594 7.11667 11.9666L7.01667 11.8666C6.70675 11.557 6.46089 11.1894 6.29314 10.7848C6.12539 10.3801 6.03905 9.94634 6.03905 9.50829C6.03905 9.07024 6.12539 8.63648 6.29314 8.23182C6.46089 7.82716 6.70675 7.45954 7.01667 7.14996C7.32625 6.84004 7.69388 6.59417 8.09854 6.42643C8.5032 6.25868 8.93695 6.17234 9.375 6.17234C9.81306 6.17234 10.2468 6.25868 10.6515 6.42643C11.0561 6.59417 11.4238 6.84004 11.7333 7.14996L11.8333 7.24996C12.2261 7.63419 12.725 7.89193 13.2657 7.98997C13.8063 8.088 14.364 8.02182 14.8667 7.79996H15C15.493 7.58869 15.9134 7.23788 16.2095 6.79073C16.5056 6.34358 16.6645 5.8196 16.6667 5.28329V4.99996C16.6667 4.1159 17.0179 3.26806 17.643 2.64294C18.2681 2.01782 19.1159 1.66663 20 1.66663C20.8841 1.66663 21.7319 2.01782 22.357 2.64294C22.9821 3.26806 23.3333 4.1159 23.3333 4.99996V5.14996C23.3355 5.68627 23.4944 6.21025 23.7905 6.6574C24.0866 7.10455 24.5071 7.45535 25 7.66663C25.5027 7.88848 26.0603 7.95466 26.601 7.85663C27.1416 7.7586 27.6405 7.50085 28.0333 7.11663L28.1333 7.01663C28.4429 6.7067 28.8105 6.46084 29.2152 6.29309C29.6199 6.12535 30.0536 6.039 30.4917 6.039C30.9297 6.039 31.3635 6.12535 31.7681 6.29309C32.1728 6.46084 32.5404 6.7067 32.85 7.01663C33.1599 7.3262 33.4058 7.69383 33.5735 8.09849C33.7413 8.50315 33.8276 8.93691 33.8276 9.37496C33.8276 9.81301 33.7413 10.2468 33.5735 10.6514C33.4058 11.0561 33.1599 11.4237 32.85 11.7333L32.75 11.8333C32.3658 12.2261 32.108 12.725 32.01 13.2656C31.912 13.8063 31.9781 14.3639 32.2 14.8666V15C32.4113 15.4929 32.7621 15.9133 33.2092 16.2094C33.6564 16.5056 34.1804 16.6645 34.7167 16.6666H35C35.8841 16.6666 36.7319 17.0178 37.357 17.6429C37.9821 18.2681 38.3333 19.1159 38.3333 20C38.3333 20.884 37.9821 21.7319 37.357 22.357C36.7319 22.9821 35.8841 23.3333 35 23.3333H34.85C34.3137 23.3354 33.7897 23.4943 33.3426 23.7905C32.8954 24.0866 32.5446 24.507 32.3333 25Z" stroke="#1A1A1A" stroke-width="2" stroke-linecap="round" stroke-linejoin="round"/>
</g>
<defs>
<clipPath id="clip0_135_65">
<rect width="40" height="40" fill="white"/>
</clipPath>
</defs>
</svg>
